<?xml version="1.0" encoding="iso-8859-1"?>
<!-- Generator: Adobe Illustrator 19.0.0, SVG Export Plug-In . SVG Version: 6.00 Build 0)  -->
<svg version="1.1" id="Layer_1" xmlns="http://www.w3.org/2000/svg" xmlns:xlink="http://www.w3.org/1999/xlink" x="0px" y="0px"
	 viewBox="0 0 512 512" style="enable-background:new 0 0 512 512;" xml:space="preserve">
<g>
	<g>
		<path d="M271.334,196.226c-40.654,0-73.729,33.075-73.729,73.729c0,40.66,33.075,73.74,73.729,73.74
			c40.66,0,73.74-33.079,73.74-73.74C345.074,229.3,311.994,196.226,271.334,196.226z M271.334,322.217
			c-28.812,0-52.252-23.445-52.252-52.263c0-28.812,23.441-52.252,52.252-52.252c28.818,0,52.263,23.441,52.263,52.252
			C323.597,298.773,300.152,322.217,271.334,322.217z"/>
	</g>
</g>
<g>
	<g>
		<path d="M501.262,200.875h-22.55v-16.107v-62.282c0-5.931-4.808-10.738-10.738-10.738H269.315V90.271
			c0-5.931-4.807-10.738-10.738-10.738h-76.596c-5.931,0-10.738,4.807-10.738,10.738v21.477h-8.838V99.399
			c0-5.931-4.808-10.738-10.738-10.738H57.772c-5.931,0-10.738,4.808-10.738,10.738v35.973h-3.017
			c-5.931,0-10.738,4.807-10.738,10.738v38.658v16.107h-22.54C4.808,200.875,0,205.683,0,211.613
			c0,5.931,4.808,10.738,10.738,10.738h22.54v160v39.377c0,5.931,4.807,10.738,10.738,10.738h423.957
			c5.931,0,10.738-4.807,10.738-10.738v-39.377v-160h22.55c5.931,0,10.738-4.807,10.738-10.738
			C512,205.683,507.193,200.875,501.262,200.875z M192.719,101.009h55.119v10.738h-55.119V101.009z M68.51,110.137h72.419v9.518
			l-9.285,15.716H68.51V110.137z M54.754,156.848h83.017c3.798,0,7.314-2.006,9.246-5.276l10.84-18.348h24.123h76.596h198.658
			v40.805H340.236c-20.144-14.523-43.88-22.196-68.903-22.196c-25.027,0-48.765,7.674-68.903,22.196H54.754V156.848z
			 M424.419,230.706c-16.085,0-29.934,9.725-35.994,23.598c-2.85-21.734-11.604-41.975-25.326-58.798h94.136v52.942
			C450.211,237.773,438.127,230.706,424.419,230.706z M442.201,269.954c0,9.805-7.977,17.783-17.783,17.783
			s-17.783-7.977-17.783-17.783c0-9.8,7.977-17.772,17.783-17.772S442.201,260.155,442.201,269.954z M174.69,269.954
			c0-30.271,13.781-58.216,37.817-76.675c16.982-13.064,37.324-19.969,58.827-19.969c21.502,0,41.845,6.905,58.827,19.969
			c0.002,0.002,0.004,0.003,0.006,0.005c24.029,18.454,37.809,46.398,37.809,76.67c0,53.29-43.355,96.644-96.644,96.644
			S174.69,323.244,174.69,269.954z M211.25,371.613h-81.06V195.506h49.379c-16.97,20.804-26.356,46.833-26.356,74.448
			C153.213,313.162,176.537,351.018,211.25,371.613z M54.754,195.506h53.96v176.107h-53.96V195.506z M457.236,371.613h-9.02
			c-5.931,0-10.738,4.808-10.738,10.738s4.807,10.738,10.738,10.738h9.02v17.901h-0.001H54.754V393.09h324.378
			c5.931,0,10.738-4.807,10.738-10.738c0-5.931-4.807-10.738-10.738-10.738h-47.714c30.455-18.068,52.139-49.423,57.001-86.021
			c6.055,13.887,19.91,23.621,36.001,23.621c13.71,0,25.792-7.068,32.816-17.746V371.613z"/>
	</g>
</g>
<g>
	<g>
		<path d="M416.902,371.613h-4.295c-5.931,0-10.738,4.808-10.738,10.738s4.807,10.738,10.738,10.738h4.295
			c5.931,0,10.738-4.808,10.738-10.738S422.833,371.613,416.902,371.613z"/>
	</g>
</g>
<g>
	<g>
		<path d="M298.663,259.216c-5.931,0-10.738,4.807-10.738,10.738c0,9.148-7.443,16.591-16.591,16.591
			c-9.148,0-16.591-7.443-16.591-16.591c0-9.148,7.443-16.591,16.591-16.591c5.931,0,10.738-4.807,10.738-10.738
			c0-5.931-4.808-10.738-10.738-10.738c-20.99,0-38.067,17.077-38.067,38.067c0,20.99,17.077,38.067,38.067,38.067
			s38.067-17.077,38.067-38.067C309.401,264.024,304.594,259.216,298.663,259.216z"/>
	</g>
</g>
<g>
</g>
<g>
</g>
<g>
</g>
<g>
</g>
<g>
</g>
<g>
</g>
<g>
</g>
<g>
</g>
<g>
</g>
<g>
</g>
<g>
</g>
<g>
</g>
<g>
</g>
<g>
</g>
<g>
</g>
</svg>
